<svg version="1.1" xmlns="http://www.w3.org/2000/svg" xmlns:xlink="http://www.w3.org/1999/xlink" width="837.20458984375" height="1396"><defs/><g><g transform="translate(-582,-30) scale(1,1)"><rect fill="#C0C0C0" stroke="none" x="607" y="47" width="71.736328125" height="39" opacity="0.2"/></g><g transform="translate(-582,-30) scale(1,1)"><rect fill="#ffffff" stroke="none" x="600" y="40" width="71.736328125" height="39"/></g><g transform="translate(-582,-30) scale(1,1)"><path fill="none" stroke="#000000" d="M 600 40 L 671.736328125 40 L 671.736328125 79 L 600 79 L 600 40 Z Z" stroke-miterlimit="10"/></g><g transform="translate(-582,-30) scale(1,1)"><g><path fill="none" stroke="none"/><text fill="#000000" stroke="none" font-family="Arial" font-size="13px" font-style="normal" font-weight="bold" text-decoration="none" x="612.746826171875" y="59.5">Game_t</text></g></g><g transform="translate(-582,-30) scale(1,1)"><path fill="none" stroke="#000000" d="M 636.5 80 L 636.5 1226" stroke-miterlimit="10" stroke-dasharray="3"/></g><g transform="translate(-582,-30) scale(1,1)"><rect fill="#C0C0C0" stroke="none" x="783" y="47" width="110.025390625" height="39" opacity="0.2"/></g><g transform="translate(-582,-30) scale(1,1)"><rect fill="#ffffff" stroke="none" x="776" y="40" width="110.025390625" height="39"/></g><g transform="translate(-582,-30) scale(1,1)"><path fill="none" stroke="#000000" d="M 776 40 L 886.025390625 40 L 886.025390625 79 L 776 79 L 776 40 Z Z" stroke-miterlimit="10"/></g><g transform="translate(-582,-30) scale(1,1)"><g><path fill="none" stroke="none"/><text fill="#000000" stroke="none" font-family="Arial" font-size="13px" font-style="normal" font-weight="bold" text-decoration="none" x="787.65185546875" y="59.5">GameEngine_t</text></g></g><g transform="translate(-582,-30) scale(1,1)"><path fill="none" stroke="#000000" d="M 832.5 80 L 832.5 1196" stroke-miterlimit="10" stroke-dasharray="3"/></g><g transform="translate(-582,-30) scale(1,1)"><rect fill="#C0C0C0" stroke="none" x="903" y="47" width="116.525390625" height="39" opacity="0.2"/></g><g transform="translate(-582,-30) scale(1,1)"><rect fill="#ffffff" stroke="none" x="896" y="40" width="116.525390625" height="39"/></g><g transform="translate(-582,-30) scale(1,1)"><path fill="none" stroke="#000000" d="M 896 40 L 1012.525390625 40 L 1012.525390625 79 L 896 79 L 896 40 Z Z" stroke-miterlimit="10"/></g><g transform="translate(-582,-30) scale(1,1)"><g><path fill="none" stroke="none"/><text fill="#000000" stroke="none" font-family="Arial" font-size="13px" font-style="normal" font-weight="bold" text-decoration="none" x="908.73095703125" y="59.5">InterfaceEngine</text></g></g><g transform="translate(-582,-30) scale(1,1)"><path fill="none" stroke="#000000" d="M 955.5 80 L 955.5 1172" stroke-miterlimit="10" stroke-dasharray="3"/></g><g transform="translate(-582,-30) scale(1,1)"><rect fill="#C0C0C0" stroke="none" x="695" y="47" width="71.736328125" height="39" opacity="0.2"/></g><g transform="translate(-582,-30) scale(1,1)"><rect fill="#ffffff" stroke="none" x="688" y="40" width="71.736328125" height="39"/></g><g transform="translate(-582,-30) scale(1,1)"><path fill="none" stroke="#000000" d="M 688 40 L 759.736328125 40 L 759.736328125 79 L 688 79 L 688 40 Z Z" stroke-miterlimit="10"/></g><g transform="translate(-582,-30) scale(1,1)"><g><path fill="none" stroke="none"/><text fill="#000000" stroke="none" font-family="Arial" font-size="13px" font-style="normal" font-weight="bold" text-decoration="none" x="702.908203125" y="59.5">Level_t</text></g></g><g transform="translate(-582,-30) scale(1,1)"><path fill="none" stroke="#000000" d="M 724.5 80 L 724.5 1226" stroke-miterlimit="10" stroke-dasharray="3"/></g><g transform="translate(-582,-30) scale(1,1)"><rect fill="#C0C0C0" stroke="none" x="1031" y="47" width="97.72998046875" height="39" opacity="0.2"/></g><g transform="translate(-582,-30) scale(1,1)"><rect fill="#ffffff" stroke="none" x="1024" y="40" width="97.72998046875" height="39"/></g><g transform="translate(-582,-30) scale(1,1)"><path fill="none" stroke="#000000" d="M 1024 40 L 1121.72998046875 40 L 1121.72998046875 79 L 1024 79 L 1024 40 Z Z" stroke-miterlimit="10"/></g><g transform="translate(-582,-30) scale(1,1)"><g><path fill="none" stroke="none"/><text fill="#000000" stroke="none" font-family="Arial" font-size="13px" font-style="normal" font-weight="bold" text-decoration="none" x="1037.4609375" y="59.5">KBcontroller</text></g></g><g transform="translate(-582,-30) scale(1,1)"><path fill="none" stroke="#000000" d="M 1073.5 80 L 1073.5 1143" stroke-miterlimit="10" stroke-dasharray="3"/></g><g transform="translate(-582,-30) scale(1,1)"><rect fill="#C0C0C0" stroke="none" x="1143" y="47" width="89.78271484375" height="39" opacity="0.2"/></g><g transform="translate(-582,-30) scale(1,1)"><rect fill="#ffffff" stroke="none" x="1136" y="40" width="89.78271484375" height="39"/></g><g transform="translate(-582,-30) scale(1,1)"><path fill="none" stroke="#000000" d="M 1136 40 L 1225.78271484375 40 L 1225.78271484375 79 L 1136 79 L 1136 40 Z Z" stroke-miterlimit="10"/></g><g transform="translate(-582,-30) scale(1,1)"><g><path fill="none" stroke="none"/><text fill="#000000" stroke="none" font-family="Arial" font-size="13px" font-style="normal" font-weight="bold" text-decoration="none" x="1148.74365234375" y="59.5">Mcontroller</text></g></g><g transform="translate(-582,-30) scale(1,1)"><path fill="none" stroke="#000000" d="M 1181.5 80 L 1181.5 1114" stroke-miterlimit="10" stroke-dasharray="3"/></g><g transform="translate(-582,-30) scale(1,1)"><rect fill="#C0C0C0" stroke="none" x="1247" y="47" width="169.20458984375" height="39" opacity="0.2"/></g><g transform="translate(-582,-30) scale(1,1)"><rect fill="#ffffff" stroke="none" x="1240" y="40" width="169.20458984375" height="39"/></g><g transform="translate(-582,-30) scale(1,1)"><path fill="none" stroke="#000000" d="M 1240 40 L 1409.20458984375 40 L 1409.20458984375 79 L 1240 79 L 1240 40 Z Z" stroke-miterlimit="10"/></g><g transform="translate(-582,-30) scale(1,1)"><g><path fill="none" stroke="none"/><text fill="#000000" stroke="none" font-family="Arial" font-size="13px" font-style="normal" font-weight="bold" text-decoration="none" x="1254.87646484375" y="59.5">RenderWindow: window</text></g></g><g transform="translate(-582,-30) scale(1,1)"><path fill="none" stroke="#000000" d="M 1325.5 80 L 1325.5 1416" stroke-miterlimit="10" stroke-dasharray="3"/></g><g transform="translate(-582,-30) scale(1,1)"><path fill="none" stroke="#000000" d="M 592 112 L 1343 112 L 1343 647 L 592 647 L 592 112" stroke-miterlimit="10"/></g><g transform="translate(-582,-30) scale(1,1)"><path fill="#ffffff" stroke="none" d="M 592 112 L 592 134 L 697.603515625 134 L 708.603515625 123 L 708.603515625 112 L 592 112"/></g><g transform="translate(-582,-30) scale(1,1)"><path fill="none" stroke="#000000" d="M 592 112 L 592 134 L 697.603515625 134 L 708.603515625 123 L 708.603515625 112 L 592 112 L 592 112" stroke-miterlimit="10"/></g><g transform="translate(-582,-30) scale(1,1)"><g><path fill="none" stroke="none"/><text fill="#000000" stroke="none" font-family="Arial" font-size="13px" font-style="normal" font-weight="normal" text-decoration="none" x="627.578125" y="129.5">gameCycle</text></g></g><g transform="translate(-582,-30) scale(1,1)"><g><path fill="none" stroke="none"/><text fill="#000000" stroke="none" font-family="Arial" font-size="13px" font-style="normal" font-weight="bold" text-decoration="none" x="597" y="129.5">loop</text></g></g><g transform="translate(-582,-30) scale(1,1)"><path fill="none" stroke="#000000" d="M 636 147 L 1318 147" stroke-miterlimit="10"/></g><g transform="translate(-582,-30) scale(1,1)"><path fill="#000000" stroke="none" d="M 1307.837325142376 151.209517756016 L 1318 147 L 1307.837325142376 142.790482243984"/></g><g transform="translate(-582,-30) scale(1,1)"><path fill="none" stroke="#000000" d="M 1307.837325142376 151.209517756016 L 1318 147 L 1307.837325142376 142.790482243984 L 1307.837325142376 151.209517756016" stroke-miterlimit="10"/></g><g transform="translate(-582,-30) scale(1,1)"><g><path fill="none" stroke="none"/><text fill="#000000" stroke="none" font-family="Arial" font-size="13px" font-style="normal" font-weight="normal" text-decoration="none" x="940.75" y="143.5">1 : pollEvent</text></g></g><g transform="translate(-582,-30) scale(1,1)"><rect fill="#ffffff" stroke="none" x="1318" y="147" width="13" height="45"/></g><g transform="translate(-582,-30) scale(1,1)"><path fill="none" stroke="#000000" d="M 1318 147 L 1331 147 L 1331 192 L 1318 192 L 1318 147 Z Z" stroke-miterlimit="10"/></g><g transform="translate(-582,-30) scale(1,1)"><path fill="none" stroke="#000000" d="M 1325 194 L 636 194" stroke-miterlimit="10" stroke-dasharray="3"/></g><g transform="translate(-582,-30) scale(1,1)"><path fill="none" stroke="#000000" d="M 646.1626748576241 189.790482243984 L 636 194 L 646.1626748576241 198.209517756016" stroke-miterlimit="10"/></g><g transform="translate(-582,-30) scale(1,1)"><g><path fill="none" stroke="none"/><text fill="#000000" stroke="none" font-family="Arial" font-size="13px" font-style="normal" font-weight="normal" text-decoration="none" x="969.5" y="210.5">2 : </text></g></g><g transform="translate(-582,-30) scale(1,1)"><path fill="none" stroke="#000000" d="M 636 228 L 825 228" stroke-miterlimit="10"/></g><g transform="translate(-582,-30) scale(1,1)"><path fill="#000000" stroke="none" d="M 814.8373251423759 232.209517756016 L 825 228 L 814.8373251423758 223.790482243984"/></g><g transform="translate(-582,-30) scale(1,1)"><path fill="none" stroke="#000000" d="M 814.8373251423759 232.209517756016 L 825 228 L 814.8373251423758 223.790482243984 L 814.8373251423759 232.209517756016" stroke-miterlimit="10"/></g><g transform="translate(-582,-30) scale(1,1)"><g><path fill="none" stroke="none"/><text fill="#000000" stroke="none" font-family="Arial" font-size="13px" font-style="normal" font-weight="normal" text-decoration="none" x="701.5390625" y="224.5">3 : update</text></g></g><g transform="translate(-582,-30) scale(1,1)"><rect fill="#ffffff" stroke="none" x="825" y="228" width="13" height="28"/></g><g transform="translate(-582,-30) scale(1,1)"><path fill="none" stroke="#000000" d="M 825 228 L 838 228 L 838 256 L 825 256 L 825 228 Z Z" stroke-miterlimit="10"/></g><g transform="translate(-582,-30) scale(1,1)"><path fill="none" stroke="#000000" d="M 825 251 L 636 251" stroke-miterlimit="10" stroke-dasharray="3"/></g><g transform="translate(-582,-30) scale(1,1)"><path fill="none" stroke="#000000" d="M 646.1626748576241 246.790482243984 L 636 251 L 646.1626748576241 255.209517756016" stroke-miterlimit="10"/></g><g transform="translate(-582,-30) scale(1,1)"><g><path fill="none" stroke="none"/><text fill="#000000" stroke="none" font-family="Arial" font-size="13px" font-style="normal" font-weight="normal" text-decoration="none" x="720.114990234375" y="267.5">4 : </text></g></g><g transform="translate(-582,-30) scale(1,1)"><path fill="none" stroke="#000000" d="M 636 272 L 1174 272" stroke-miterlimit="10"/></g><g transform="translate(-582,-30) scale(1,1)"><path fill="#000000" stroke="none" d="M 1163.837325142376 276.209517756016 L 1174 272 L 1163.837325142376 267.790482243984"/></g><g transform="translate(-582,-30) scale(1,1)"><path fill="none" stroke="#000000" d="M 1163.837325142376 276.209517756016 L 1174 272 L 1163.837325142376 267.790482243984 L 1163.837325142376 276.209517756016" stroke-miterlimit="10"/></g><g transform="translate(-582,-30) scale(1,1)"><g><path fill="none" stroke="none"/><text fill="#000000" stroke="none" font-family="Arial" font-size="13px" font-style="normal" font-weight="normal" text-decoration="none" x="857.114990234375" y="268.5">5 : eventHandler</text></g></g><g transform="translate(-582,-30) scale(1,1)"><rect fill="#ffffff" stroke="none" x="1174" y="272" width="13" height="28"/></g><g transform="translate(-582,-30) scale(1,1)"><path fill="none" stroke="#000000" d="M 1174 272 L 1187 272 L 1187 300 L 1174 300 L 1174 272 Z Z" stroke-miterlimit="10"/></g><g transform="translate(-582,-30) scale(1,1)"><path fill="none" stroke="#000000" d="M 1174 298 L 955 298" stroke-miterlimit="10" stroke-dasharray="3"/></g><g transform="translate(-582,-30) scale(1,1)"><path fill="none" stroke="#000000" d="M 965.1626748576241 293.790482243984 L 955 298 L 965.1626748576241 302.209517756016" stroke-miterlimit="10"/></g><g transform="translate(-582,-30) scale(1,1)"><g><path fill="none" stroke="none"/><text fill="#000000" stroke="none" font-family="Arial" font-size="13px" font-style="normal" font-weight="normal" text-decoration="none" x="1054.114990234375" y="314.5">6 : </text></g></g><g transform="translate(-582,-30) scale(1,1)"><path fill="none" stroke="#000000" d="M 955 305 L 636 305" stroke-miterlimit="10" stroke-dasharray="3"/></g><g transform="translate(-582,-30) scale(1,1)"><path fill="none" stroke="#000000" d="M 646.1626748576241 300.790482243984 L 636 305 L 646.1626748576241 309.209517756016" stroke-miterlimit="10"/></g><g transform="translate(-582,-30) scale(1,1)"><g><path fill="none" stroke="none"/><text fill="#000000" stroke="none" font-family="Arial" font-size="13px" font-style="normal" font-weight="normal" text-decoration="none" x="785.114990234375" y="321.5">7 : </text></g></g><g transform="translate(-582,-30) scale(1,1)"><path fill="none" stroke="#000000" d="M 636 338 L 1066 338" stroke-miterlimit="10"/></g><g transform="translate(-582,-30) scale(1,1)"><path fill="#000000" stroke="none" d="M 1055.837325142376 342.209517756016 L 1066 338 L 1055.837325142376 333.790482243984"/></g><g transform="translate(-582,-30) scale(1,1)"><path fill="none" stroke="#000000" d="M 1055.837325142376 342.209517756016 L 1066 338 L 1055.837325142376 333.790482243984 L 1055.837325142376 342.209517756016" stroke-miterlimit="10"/></g><g transform="translate(-582,-30) scale(1,1)"><g><path fill="none" stroke="none"/><text fill="#000000" stroke="none" font-family="Arial" font-size="13px" font-style="normal" font-weight="normal" text-decoration="none" x="783.114990234375" y="334.5">8 : eventHandler(event)</text></g></g><g transform="translate(-582,-30) scale(1,1)"><rect fill="#ffffff" stroke="none" x="1066" y="338" width="13" height="70"/></g><g transform="translate(-582,-30) scale(1,1)"><path fill="none" stroke="#000000" d="M 1066 338 L 1079 338 L 1079 408 L 1066 408 L 1066 338 Z Z" stroke-miterlimit="10"/></g><g transform="translate(-582,-30) scale(1,1)"><path fill="none" stroke="#000000" d="M 1066 360 L 838 360" stroke-miterlimit="10"/></g><g transform="translate(-582,-30) scale(1,1)"><path fill="none" stroke="#000000" d="M 848.1626748576241 355.790482243984 L 838 360 L 848.1626748576241 364.209517756016" stroke-miterlimit="10"/></g><g transform="translate(-582,-30) scale(1,1)"><g><path fill="none" stroke="none"/><text fill="#000000" stroke="none" font-family="Arial" font-size="13px" font-style="normal" font-weight="normal" text-decoration="none" x="926.20361328125" y="376.5">9 : event</text></g></g><g transform="translate(-582,-30) scale(1,1)"><rect fill="#ffffff" stroke="none" x="825" y="360" width="13" height="28"/></g><g transform="translate(-582,-30) scale(1,1)"><path fill="none" stroke="#000000" d="M 825 360 L 838 360 L 838 388 L 825 388 L 825 360 Z Z" stroke-miterlimit="10"/></g><g transform="translate(-582,-30) scale(1,1)"><path fill="none" stroke="#000000" d="M 825 384 L 636 384" stroke-miterlimit="10" stroke-dasharray="3"/></g><g transform="translate(-582,-30) scale(1,1)"><path fill="none" stroke="#000000" d="M 646.1626748576241 379.790482243984 L 636 384 L 646.1626748576241 388.209517756016" stroke-miterlimit="10"/></g><g transform="translate(-582,-30) scale(1,1)"><g><path fill="none" stroke="none"/><text fill="#000000" stroke="none" font-family="Arial" font-size="13px" font-style="normal" font-weight="normal" text-decoration="none" x="716.5" y="400.5">10 : </text></g></g><g transform="translate(-582,-30) scale(1,1)"><path fill="none" stroke="#000000" d="M 636 416 L 948 416" stroke-miterlimit="10"/></g><g transform="translate(-582,-30) scale(1,1)"><path fill="#000000" stroke="none" d="M 937.8373251423759 420.209517756016 L 948 416 L 937.8373251423758 411.790482243984"/></g><g transform="translate(-582,-30) scale(1,1)"><path fill="none" stroke="#000000" d="M 937.8373251423759 420.209517756016 L 948 416 L 937.8373251423758 411.790482243984 L 937.8373251423759 420.209517756016" stroke-miterlimit="10"/></g><g transform="translate(-582,-30) scale(1,1)"><g><path fill="none" stroke="none"/><text fill="#000000" stroke="none" font-family="Arial" font-size="13px" font-style="normal" font-weight="normal" text-decoration="none" x="759.792236328125" y="412.5">11 : update</text></g></g><g transform="translate(-582,-30) scale(1,1)"><rect fill="#ffffff" stroke="none" x="948" y="416" width="13" height="28"/></g><g transform="translate(-582,-30) scale(1,1)"><path fill="none" stroke="#000000" d="M 948 416 L 961 416 L 961 444 L 948 444 L 948 416 Z Z" stroke-miterlimit="10"/></g><g transform="translate(-582,-30) scale(1,1)"><path fill="none" stroke="#000000" d="M 948 441 L 636 441" stroke-miterlimit="10" stroke-dasharray="3"/></g><g transform="translate(-582,-30) scale(1,1)"><path fill="none" stroke="#000000" d="M 646.1626748576241 436.790482243984 L 636 441 L 646.1626748576241 445.209517756016" stroke-miterlimit="10"/></g><g transform="translate(-582,-30) scale(1,1)"><g><path fill="none" stroke="none"/><text fill="#000000" stroke="none" font-family="Arial" font-size="13px" font-style="normal" font-weight="normal" text-decoration="none" x="778.5" y="457.5">12 : </text></g></g><g transform="translate(-582,-30) scale(1,1)"><path fill="none" stroke="#000000" d="M 636 492 L 1318 492" stroke-miterlimit="10"/></g><g transform="translate(-582,-30) scale(1,1)"><path fill="#000000" stroke="none" d="M 1307.837325142376 496.209517756016 L 1318 492 L 1307.837325142376 487.790482243984"/></g><g transform="translate(-582,-30) scale(1,1)"><path fill="none" stroke="#000000" d="M 1307.837325142376 496.209517756016 L 1318 492 L 1307.837325142376 487.790482243984 L 1307.837325142376 496.209517756016" stroke-miterlimit="10"/></g><g transform="translate(-582,-30) scale(1,1)"><g><path fill="none" stroke="none"/><text fill="#000000" stroke="none" font-family="Arial" font-size="13px" font-style="normal" font-weight="normal" text-decoration="none" x="887.40087890625" y="491.5">13 : clear</text></g></g><g transform="translate(-582,-30) scale(1,1)"><rect fill="#ffffff" stroke="none" x="1318" y="492" width="13" height="84"/></g><g transform="translate(-582,-30) scale(1,1)"><path fill="none" stroke="#000000" d="M 1318 492 L 1331 492 L 1331 576 L 1318 576 L 1318 492 Z Z" stroke-miterlimit="10"/></g><g transform="translate(-582,-30) scale(1,1)"><path fill="none" stroke="#000000" d="M 832 535 L 1318 535" stroke-miterlimit="10"/></g><g transform="translate(-582,-30) scale(1,1)"><path fill="none" stroke="#000000" d="M 1307.837325142376 539.209517756016 L 1318 535 L 1307.837325142376 530.790482243984" stroke-miterlimit="10"/></g><g transform="translate(-582,-30) scale(1,1)"><g><path fill="none" stroke="none"/><text fill="#000000" stroke="none" font-family="Arial" font-size="13px" font-style="normal" font-weight="normal" text-decoration="none" x="1091.40087890625" y="532.5">14 : draw</text></g></g><g transform="translate(-582,-30) scale(1,1)"><path fill="none" stroke="#000000" d="M 955 568 L 1318 568" stroke-miterlimit="10"/></g><g transform="translate(-582,-30) scale(1,1)"><path fill="none" stroke="#000000" d="M 1307.837325142376 572.209517756016 L 1318 568 L 1307.837325142376 563.790482243984" stroke-miterlimit="10"/></g><g transform="translate(-582,-30) scale(1,1)"><g><path fill="none" stroke="none"/><text fill="#000000" stroke="none" font-family="Arial" font-size="13px" font-style="normal" font-weight="normal" text-decoration="none" x="1109.40087890625" y="564.5">15 : draw</text></g></g></g></svg>