<svg version="1.1" xmlns="http://www.w3.org/2000/svg" xmlns:xlink="http://www.w3.org/1999/xlink" width="972" height="1420"><defs/><g><g transform="translate(-430,-30) scale(1,1)"><path fill="none" stroke="#000000" d="M 440 88 L 1392 88 L 1392 1440 L 440 1440 L 440 88" stroke-miterlimit="10"/></g><g transform="translate(-430,-30) scale(1,1)"><path fill="#ffffff" stroke="none" d="M 440 88 L 440 110 L 630.88427734375 110 L 641.88427734375 99 L 641.88427734375 88 L 440 88"/></g><g transform="translate(-430,-30) scale(1,1)"><path fill="none" stroke="#000000" d="M 440 88 L 440 110 L 630.88427734375 110 L 641.88427734375 99 L 641.88427734375 88 L 440 88 L 440 88" stroke-miterlimit="10"/></g><g transform="translate(-430,-30) scale(1,1)"><g><path fill="none" stroke="none"/><text fill="#000000" stroke="none" font-family="Arial" font-size="13px" font-style="normal" font-weight="normal" text-decoration="none" x="510.97900390625" y="105.5">SequenceDiagram1</text></g></g><g transform="translate(-430,-30) scale(1,1)"><g><path fill="none" stroke="none"/><text fill="#000000" stroke="none" font-family="Arial" font-size="13px" font-style="normal" font-weight="bold" text-decoration="none" x="445" y="105.5">interaction</text></g></g><g transform="translate(-430,-30) scale(1,1)"><rect fill="#C0C0C0" stroke="none" x="623" y="139" width="71.736328125" height="39" opacity="0.2"/></g><g transform="translate(-430,-30) scale(1,1)"><rect fill="#ffffff" stroke="none" x="616" y="132" width="71.736328125" height="39"/></g><g transform="translate(-430,-30) scale(1,1)"><path fill="none" stroke="#000000" d="M 616 132 L 687.736328125 132 L 687.736328125 171 L 616 171 L 616 132 Z Z" stroke-miterlimit="10"/></g><g transform="translate(-430,-30) scale(1,1)"><g><path fill="none" stroke="none"/><text fill="#000000" stroke="none" font-family="Arial" font-size="13px" font-style="normal" font-weight="bold" text-decoration="none" x="628.746826171875" y="151.5">Game_t</text></g></g><g transform="translate(-430,-30) scale(1,1)"><path fill="none" stroke="#000000" d="M 652.5 172 L 652.5 1287" stroke-miterlimit="10" stroke-dasharray="3"/></g><g transform="translate(-430,-30) scale(1,1)"><rect fill="#C0C0C0" stroke="none" x="807" y="267" width="110.025390625" height="39" opacity="0.2"/></g><g transform="translate(-430,-30) scale(1,1)"><rect fill="#ffffff" stroke="none" x="800" y="260" width="110.025390625" height="39"/></g><g transform="translate(-430,-30) scale(1,1)"><path fill="none" stroke="#000000" d="M 800 260 L 910.025390625 260 L 910.025390625 299 L 800 299 L 800 260 Z Z" stroke-miterlimit="10"/></g><g transform="translate(-430,-30) scale(1,1)"><g><path fill="none" stroke="none"/><text fill="#000000" stroke="none" font-family="Arial" font-size="13px" font-style="normal" font-weight="bold" text-decoration="none" x="811.65185546875" y="279.5">GameEngine_t</text></g></g><g transform="translate(-430,-30) scale(1,1)"><path fill="none" stroke="#000000" d="M 856.5 300 L 856.5 1204" stroke-miterlimit="10" stroke-dasharray="3"/></g><g transform="translate(-430,-30) scale(1,1)"><rect fill="#C0C0C0" stroke="none" x="903" y="323" width="116.525390625" height="39" opacity="0.2"/></g><g transform="translate(-430,-30) scale(1,1)"><rect fill="#ffffff" stroke="none" x="896" y="316" width="116.525390625" height="39"/></g><g transform="translate(-430,-30) scale(1,1)"><path fill="none" stroke="#000000" d="M 896 316 L 1012.525390625 316 L 1012.525390625 355 L 896 355 L 896 316 Z Z" stroke-miterlimit="10"/></g><g transform="translate(-430,-30) scale(1,1)"><g><path fill="none" stroke="none"/><text fill="#000000" stroke="none" font-family="Arial" font-size="13px" font-style="normal" font-weight="bold" text-decoration="none" x="908.73095703125" y="335.5">InterfaceEngine</text></g></g><g transform="translate(-430,-30) scale(1,1)"><path fill="none" stroke="#000000" d="M 955.5 356 L 955.5 1180" stroke-miterlimit="10" stroke-dasharray="3"/></g><g transform="translate(-430,-30) scale(1,1)"><rect fill="#C0C0C0" stroke="none" x="471" y="47" width="83.28271484375" height="39" opacity="0.2"/></g><g transform="translate(-430,-30) scale(1,1)"><rect fill="#ffffff" stroke="none" x="464" y="40" width="83.28271484375" height="39"/></g><g transform="translate(-430,-30) scale(1,1)"><path fill="none" stroke="#000000" d="M 464 40 L 547.28271484375 40 L 547.28271484375 79 L 464 79 L 464 40 Z Z" stroke-miterlimit="10"/></g><g transform="translate(-430,-30) scale(1,1)"><g><path fill="none" stroke="none"/><text fill="#000000" stroke="none" font-family="Arial" font-size="13px" font-style="normal" font-weight="bold" text-decoration="none" x="491.552734375" y="59.5">main</text></g></g><g transform="translate(-430,-30) scale(1,1)"><path fill="none" stroke="#000000" d="M 506.5 80 L 506.5 1424" stroke-miterlimit="10" stroke-dasharray="3"/></g><g transform="translate(-430,-30) scale(1,1)"><rect fill="#C0C0C0" stroke="none" x="759" y="200" width="71.736328125" height="39" opacity="0.2"/></g><g transform="translate(-430,-30) scale(1,1)"><rect fill="#ffffff" stroke="none" x="752" y="193" width="71.736328125" height="39"/></g><g transform="translate(-430,-30) scale(1,1)"><path fill="none" stroke="#000000" d="M 752 193 L 823.736328125 193 L 823.736328125 232 L 752 232 L 752 193 Z Z" stroke-miterlimit="10"/></g><g transform="translate(-430,-30) scale(1,1)"><g><path fill="none" stroke="none"/><text fill="#000000" stroke="none" font-family="Arial" font-size="13px" font-style="normal" font-weight="bold" text-decoration="none" x="766.908203125" y="212.5">Level_t</text></g></g><g transform="translate(-430,-30) scale(1,1)"><path fill="none" stroke="#000000" d="M 788.5 233 L 788.5 1234" stroke-miterlimit="10" stroke-dasharray="3"/></g><g transform="translate(-430,-30) scale(1,1)"><rect fill="#C0C0C0" stroke="none" x="1031" y="376" width="97.72998046875" height="39" opacity="0.2"/></g><g transform="translate(-430,-30) scale(1,1)"><rect fill="#ffffff" stroke="none" x="1024" y="369" width="97.72998046875" height="39"/></g><g transform="translate(-430,-30) scale(1,1)"><path fill="none" stroke="#000000" d="M 1024 369 L 1121.72998046875 369 L 1121.72998046875 408 L 1024 408 L 1024 369 Z Z" stroke-miterlimit="10"/></g><g transform="translate(-430,-30) scale(1,1)"><g><path fill="none" stroke="none"/><text fill="#000000" stroke="none" font-family="Arial" font-size="13px" font-style="normal" font-weight="bold" text-decoration="none" x="1037.4609375" y="388.5">KBcontroller</text></g></g><g transform="translate(-430,-30) scale(1,1)"><path fill="none" stroke="#000000" d="M 1073.5 409 L 1073.5 1151" stroke-miterlimit="10" stroke-dasharray="3"/></g><g transform="translate(-430,-30) scale(1,1)"><rect fill="#C0C0C0" stroke="none" x="1119" y="432" width="89.78271484375" height="39" opacity="0.2"/></g><g transform="translate(-430,-30) scale(1,1)"><rect fill="#ffffff" stroke="none" x="1112" y="425" width="89.78271484375" height="39"/></g><g transform="translate(-430,-30) scale(1,1)"><path fill="none" stroke="#000000" d="M 1112 425 L 1201.78271484375 425 L 1201.78271484375 464 L 1112 464 L 1112 425 Z Z" stroke-miterlimit="10"/></g><g transform="translate(-430,-30) scale(1,1)"><g><path fill="none" stroke="none"/><text fill="#000000" stroke="none" font-family="Arial" font-size="13px" font-style="normal" font-weight="bold" text-decoration="none" x="1124.74365234375" y="444.5">Mcontroller</text></g></g><g transform="translate(-430,-30) scale(1,1)"><path fill="none" stroke="#000000" d="M 1157.5 465 L 1157.5 1122" stroke-miterlimit="10" stroke-dasharray="3"/></g><g transform="translate(-430,-30) scale(1,1)"><rect fill="#C0C0C0" stroke="none" x="1215" y="47" width="169.20458984375" height="39" opacity="0.2"/></g><g transform="translate(-430,-30) scale(1,1)"><rect fill="#ffffff" stroke="none" x="1208" y="40" width="169.20458984375" height="39"/></g><g transform="translate(-430,-30) scale(1,1)"><path fill="none" stroke="#000000" d="M 1208 40 L 1377.20458984375 40 L 1377.20458984375 79 L 1208 79 L 1208 40 Z Z" stroke-miterlimit="10"/></g><g transform="translate(-430,-30) scale(1,1)"><g><path fill="none" stroke="none"/><text fill="#000000" stroke="none" font-family="Arial" font-size="13px" font-style="normal" font-weight="bold" text-decoration="none" x="1222.87646484375" y="59.5">RenderWindow: window</text></g></g><g transform="translate(-430,-30) scale(1,1)"><path fill="none" stroke="#000000" d="M 1293.5 80 L 1293.5 1416" stroke-miterlimit="10" stroke-dasharray="3"/></g><g transform="translate(-430,-30) scale(1,1)"><path fill="none" stroke="#000000" d="M 592 472 L 1343 472 L 1343 1007 L 592 1007 L 592 472" stroke-miterlimit="10"/></g><g transform="translate(-430,-30) scale(1,1)"><path fill="#ffffff" stroke="none" d="M 592 472 L 592 494 L 697.603515625 494 L 708.603515625 483 L 708.603515625 472 L 592 472"/></g><g transform="translate(-430,-30) scale(1,1)"><path fill="none" stroke="#000000" d="M 592 472 L 592 494 L 697.603515625 494 L 708.603515625 483 L 708.603515625 472 L 592 472 L 592 472" stroke-miterlimit="10"/></g><g transform="translate(-430,-30) scale(1,1)"><g><path fill="none" stroke="none"/><text fill="#000000" stroke="none" font-family="Arial" font-size="13px" font-style="normal" font-weight="normal" text-decoration="none" x="627.578125" y="489.5">gameCycle</text></g></g><g transform="translate(-430,-30) scale(1,1)"><g><path fill="none" stroke="none"/><text fill="#000000" stroke="none" font-family="Arial" font-size="13px" font-style="normal" font-weight="bold" text-decoration="none" x="597" y="489.5">loop</text></g></g><g transform="translate(-430,-30) scale(1,1)"><path fill="none" stroke="#000000" d="M 456 1016 L 1344 1016 L 1344 1287 L 456 1287 L 456 1016" stroke-miterlimit="10"/></g><g transform="translate(-430,-30) scale(1,1)"><path fill="#ffffff" stroke="none" d="M 456 1016 L 456 1038 L 550.03173828125 1038 L 561.03173828125 1027 L 561.03173828125 1016 L 456 1016"/></g><g transform="translate(-430,-30) scale(1,1)"><path fill="none" stroke="#000000" d="M 456 1016 L 456 1038 L 550.03173828125 1038 L 561.03173828125 1027 L 561.03173828125 1016 L 456 1016 L 456 1016" stroke-miterlimit="10"/></g><g transform="translate(-430,-30) scale(1,1)"><g><path fill="none" stroke="none"/><text fill="#000000" stroke="none" font-family="Arial" font-size="13px" font-style="normal" font-weight="normal" text-decoration="none" x="480.72998046875" y="1033.5">resetGame</text></g></g><g transform="translate(-430,-30) scale(1,1)"><g><path fill="none" stroke="none"/><text fill="#000000" stroke="none" font-family="Arial" font-size="13px" font-style="normal" font-weight="bold" text-decoration="none" x="461" y="1033.5">alt</text></g></g><g transform="translate(-430,-30) scale(1,1)"><path fill="none" stroke="#000000" d="M 506 152 L 616 152" stroke-miterlimit="10" stroke-dasharray="3"/></g><g transform="translate(-430,-30) scale(1,1)"><path fill="none" stroke="#000000" d="M 605.8373251423759 156.209517756016 L 616 152 L 605.8373251423758 147.790482243984" stroke-miterlimit="10"/></g><g transform="translate(-430,-30) scale(1,1)"><g><path fill="none" stroke="none"/><text fill="#000000" stroke="none" font-family="Arial" font-size="13px" font-style="normal" font-weight="normal" text-decoration="none" x="551.5" y="148.5">1 : </text></g></g><g transform="translate(-430,-30) scale(1,1)"><g><path fill="none" stroke="none"/><text fill="#000000" stroke="none" font-family="Arial" font-size="13px" font-style="normal" font-weight="normal" text-decoration="none" x="535.5" y="133.5">«create»</text></g></g><g transform="translate(-430,-30) scale(1,1)"><path fill="none" stroke="#000000" d="M 652 213 L 752 213" stroke-miterlimit="10" stroke-dasharray="3"/></g><g transform="translate(-430,-30) scale(1,1)"><path fill="none" stroke="#000000" d="M 741.8373251423759 217.209517756016 L 752 213 L 741.8373251423758 208.790482243984" stroke-miterlimit="10"/></g><g transform="translate(-430,-30) scale(1,1)"><g><path fill="none" stroke="none"/><text fill="#000000" stroke="none" font-family="Arial" font-size="13px" font-style="normal" font-weight="normal" text-decoration="none" x="692.5" y="209.5">2 : </text></g></g><g transform="translate(-430,-30) scale(1,1)"><g><path fill="none" stroke="none"/><text fill="#000000" stroke="none" font-family="Arial" font-size="13px" font-style="normal" font-weight="normal" text-decoration="none" x="676.5" y="194.5">«create»</text></g></g><g transform="translate(-430,-30) scale(1,1)"><path fill="none" stroke="#000000" d="M 652 280 L 800 280" stroke-miterlimit="10" stroke-dasharray="3"/></g><g transform="translate(-430,-30) scale(1,1)"><path fill="none" stroke="#000000" d="M 789.8373251423759 284.209517756016 L 800 280 L 789.8373251423758 275.790482243984" stroke-miterlimit="10"/></g><g transform="translate(-430,-30) scale(1,1)"><g><path fill="none" stroke="none"/><text fill="#000000" stroke="none" font-family="Arial" font-size="13px" font-style="normal" font-weight="normal" text-decoration="none" x="694.5" y="275.5">3 : </text></g></g><g transform="translate(-430,-30) scale(1,1)"><g><path fill="none" stroke="none"/><text fill="#000000" stroke="none" font-family="Arial" font-size="13px" font-style="normal" font-weight="normal" text-decoration="none" x="678.5" y="259.5">«create»</text></g></g><g transform="translate(-430,-30) scale(1,1)"><path fill="none" stroke="#000000" d="M 652 336 L 896 336" stroke-miterlimit="10" stroke-dasharray="3"/></g><g transform="translate(-430,-30) scale(1,1)"><path fill="none" stroke="#000000" d="M 885.8373251423759 340.209517756016 L 896 336 L 885.8373251423758 331.790482243984" stroke-miterlimit="10"/></g><g transform="translate(-430,-30) scale(1,1)"><g><path fill="none" stroke="none"/><text fill="#000000" stroke="none" font-family="Arial" font-size="13px" font-style="normal" font-weight="normal" text-decoration="none" x="698.5" y="323.5">4 : </text></g></g><g transform="translate(-430,-30) scale(1,1)"><g><path fill="none" stroke="none"/><text fill="#000000" stroke="none" font-family="Arial" font-size="13px" font-style="normal" font-weight="normal" text-decoration="none" x="682.5" y="307.5">«create»</text></g></g><g transform="translate(-430,-30) scale(1,1)"><path fill="none" stroke="#000000" d="M 652 389 L 1024 389" stroke-miterlimit="10" stroke-dasharray="3"/></g><g transform="translate(-430,-30) scale(1,1)"><path fill="none" stroke="#000000" d="M 1013.8373251423759 393.209517756016 L 1024 389 L 1013.8373251423758 384.790482243984" stroke-miterlimit="10"/></g><g transform="translate(-430,-30) scale(1,1)"><g><path fill="none" stroke="none"/><text fill="#000000" stroke="none" font-family="Arial" font-size="13px" font-style="normal" font-weight="normal" text-decoration="none" x="710.5" y="384.5">5 : </text></g></g><g transform="translate(-430,-30) scale(1,1)"><g><path fill="none" stroke="none"/><text fill="#000000" stroke="none" font-family="Arial" font-size="13px" font-style="normal" font-weight="normal" text-decoration="none" x="686.5" y="371.5">«create»</text></g></g><g transform="translate(-430,-30) scale(1,1)"><path fill="none" stroke="#000000" d="M 652 445 L 1112 445" stroke-miterlimit="10" stroke-dasharray="3"/></g><g transform="translate(-430,-30) scale(1,1)"><path fill="none" stroke="#000000" d="M 1101.837325142376 449.209517756016 L 1112 445 L 1101.837325142376 440.790482243984" stroke-miterlimit="10"/></g><g transform="translate(-430,-30) scale(1,1)"><g><path fill="none" stroke="none"/><text fill="#000000" stroke="none" font-family="Arial" font-size="13px" font-style="normal" font-weight="normal" text-decoration="none" x="710.5" y="443.5">6 : </text></g></g><g transform="translate(-430,-30) scale(1,1)"><g><path fill="none" stroke="none"/><text fill="#000000" stroke="none" font-family="Arial" font-size="13px" font-style="normal" font-weight="normal" text-decoration="none" x="694.5" y="427.5">«create»</text></g></g><g transform="translate(-430,-30) scale(1,1)"><path fill="none" stroke="#000000" d="M 652 507 L 1286 507" stroke-miterlimit="10"/></g><g transform="translate(-430,-30) scale(1,1)"><path fill="#000000" stroke="none" d="M 1275.837325142376 511.209517756016 L 1286 507 L 1275.837325142376 502.790482243984"/></g><g transform="translate(-430,-30) scale(1,1)"><path fill="none" stroke="#000000" d="M 1275.837325142376 511.209517756016 L 1286 507 L 1275.837325142376 502.790482243984 L 1275.837325142376 511.209517756016" stroke-miterlimit="10"/></g><g transform="translate(-430,-30) scale(1,1)"><g><path fill="none" stroke="none"/><text fill="#000000" stroke="none" font-family="Arial" font-size="13px" font-style="normal" font-weight="normal" text-decoration="none" x="932.75" y="503.5">7 : pollEvent</text></g></g><g transform="translate(-430,-30) scale(1,1)"><rect fill="#ffffff" stroke="none" x="1286" y="507" width="13" height="45"/></g><g transform="translate(-430,-30) scale(1,1)"><path fill="none" stroke="#000000" d="M 1286 507 L 1299 507 L 1299 552 L 1286 552 L 1286 507 Z Z" stroke-miterlimit="10"/></g><g transform="translate(-430,-30) scale(1,1)"><path fill="none" stroke="#000000" d="M 1293 554 L 652 554" stroke-miterlimit="10" stroke-dasharray="3"/></g><g transform="translate(-430,-30) scale(1,1)"><path fill="none" stroke="#000000" d="M 662.1626748576241 549.790482243984 L 652 554 L 662.1626748576241 558.209517756016" stroke-miterlimit="10"/></g><g transform="translate(-430,-30) scale(1,1)"><g><path fill="none" stroke="none"/><text fill="#000000" stroke="none" font-family="Arial" font-size="13px" font-style="normal" font-weight="normal" text-decoration="none" x="961.5" y="570.5">8 : </text></g></g><g transform="translate(-430,-30) scale(1,1)"><path fill="none" stroke="#000000" d="M 652 588 L 849 588" stroke-miterlimit="10"/></g><g transform="translate(-430,-30) scale(1,1)"><path fill="#000000" stroke="none" d="M 838.8373251423759 592.209517756016 L 849 588 L 838.8373251423758 583.790482243984"/></g><g transform="translate(-430,-30) scale(1,1)"><path fill="none" stroke="#000000" d="M 838.8373251423759 592.209517756016 L 849 588 L 838.8373251423758 583.790482243984 L 838.8373251423759 592.209517756016" stroke-miterlimit="10"/></g><g transform="translate(-430,-30) scale(1,1)"><g><path fill="none" stroke="none"/><text fill="#000000" stroke="none" font-family="Arial" font-size="13px" font-style="normal" font-weight="normal" text-decoration="none" x="721.5390625" y="584.5">9 : update</text></g></g><g transform="translate(-430,-30) scale(1,1)"><rect fill="#ffffff" stroke="none" x="849" y="588" width="13" height="28"/></g><g transform="translate(-430,-30) scale(1,1)"><path fill="none" stroke="#000000" d="M 849 588 L 862 588 L 862 616 L 849 616 L 849 588 Z Z" stroke-miterlimit="10"/></g><g transform="translate(-430,-30) scale(1,1)"><path fill="none" stroke="#000000" d="M 849 611 L 652 611" stroke-miterlimit="10" stroke-dasharray="3"/></g><g transform="translate(-430,-30) scale(1,1)"><path fill="none" stroke="#000000" d="M 662.1626748576241 606.790482243984 L 652 611 L 662.1626748576241 615.209517756016" stroke-miterlimit="10"/></g><g transform="translate(-430,-30) scale(1,1)"><g><path fill="none" stroke="none"/><text fill="#000000" stroke="none" font-family="Arial" font-size="13px" font-style="normal" font-weight="normal" text-decoration="none" x="736.5" y="627.5">10 : </text></g></g><g transform="translate(-430,-30) scale(1,1)"><path fill="none" stroke="#000000" d="M 652 632 L 1150 632" stroke-miterlimit="10"/></g><g transform="translate(-430,-30) scale(1,1)"><path fill="#000000" stroke="none" d="M 1139.837325142376 636.209517756016 L 1150 632 L 1139.837325142376 627.790482243984"/></g><g transform="translate(-430,-30) scale(1,1)"><path fill="none" stroke="#000000" d="M 1139.837325142376 636.209517756016 L 1150 632 L 1139.837325142376 627.790482243984 L 1139.837325142376 636.209517756016" stroke-miterlimit="10"/></g><g transform="translate(-430,-30) scale(1,1)"><g><path fill="none" stroke="none"/><text fill="#000000" stroke="none" font-family="Arial" font-size="13px" font-style="normal" font-weight="normal" text-decoration="none" x="849.5" y="628.5">11 : eventHandler</text></g></g><g transform="translate(-430,-30) scale(1,1)"><rect fill="#ffffff" stroke="none" x="1150" y="632" width="13" height="28"/></g><g transform="translate(-430,-30) scale(1,1)"><path fill="none" stroke="#000000" d="M 1150 632 L 1163 632 L 1163 660 L 1150 660 L 1150 632 Z Z" stroke-miterlimit="10"/></g><g transform="translate(-430,-30) scale(1,1)"><path fill="none" stroke="#000000" d="M 1150 658 L 955 658" stroke-miterlimit="10" stroke-dasharray="3"/></g><g transform="translate(-430,-30) scale(1,1)"><path fill="none" stroke="#000000" d="M 965.1626748576241 653.790482243984 L 955 658 L 965.1626748576241 662.209517756016" stroke-miterlimit="10"/></g><g transform="translate(-430,-30) scale(1,1)"><g><path fill="none" stroke="none"/><text fill="#000000" stroke="none" font-family="Arial" font-size="13px" font-style="normal" font-weight="normal" text-decoration="none" x="1038.5" y="674.5">12 : </text></g></g><g transform="translate(-430,-30) scale(1,1)"><path fill="none" stroke="#000000" d="M 955 665 L 652 665" stroke-miterlimit="10" stroke-dasharray="3"/></g><g transform="translate(-430,-30) scale(1,1)"><path fill="none" stroke="#000000" d="M 662.1626748576241 660.790482243984 L 652 665 L 662.1626748576241 669.209517756016" stroke-miterlimit="10"/></g><g transform="translate(-430,-30) scale(1,1)"><g><path fill="none" stroke="none"/><text fill="#000000" stroke="none" font-family="Arial" font-size="13px" font-style="normal" font-weight="normal" text-decoration="none" x="789.5" y="681.5">13 : </text></g></g><g transform="translate(-430,-30) scale(1,1)"><path fill="none" stroke="#000000" d="M 652 698 L 1066 698" stroke-miterlimit="10"/></g><g transform="translate(-430,-30) scale(1,1)"><path fill="#000000" stroke="none" d="M 1055.837325142376 702.209517756016 L 1066 698 L 1055.837325142376 693.790482243984"/></g><g transform="translate(-430,-30) scale(1,1)"><path fill="none" stroke="#000000" d="M 1055.837325142376 702.209517756016 L 1066 698 L 1055.837325142376 693.790482243984 L 1055.837325142376 702.209517756016" stroke-miterlimit="10"/></g><g transform="translate(-430,-30) scale(1,1)"><g><path fill="none" stroke="none"/><text fill="#000000" stroke="none" font-family="Arial" font-size="13px" font-style="normal" font-weight="normal" text-decoration="none" x="787.5" y="694.5">14 : eventHandler(event)</text></g></g><g transform="translate(-430,-30) scale(1,1)"><rect fill="#ffffff" stroke="none" x="1066" y="698" width="13" height="70"/></g><g transform="translate(-430,-30) scale(1,1)"><path fill="none" stroke="#000000" d="M 1066 698 L 1079 698 L 1079 768 L 1066 768 L 1066 698 Z Z" stroke-miterlimit="10"/></g><g transform="translate(-430,-30) scale(1,1)"><path fill="none" stroke="#000000" d="M 1066 720 L 862 720" stroke-miterlimit="10"/></g><g transform="translate(-430,-30) scale(1,1)"><path fill="none" stroke="#000000" d="M 872.1626748576241 715.790482243984 L 862 720 L 872.1626748576241 724.209517756016" stroke-miterlimit="10"/></g><g transform="translate(-430,-30) scale(1,1)"><g><path fill="none" stroke="none"/><text fill="#000000" stroke="none" font-family="Arial" font-size="13px" font-style="normal" font-weight="normal" text-decoration="none" x="934.588623046875" y="736.5">15 : event</text></g></g><g transform="translate(-430,-30) scale(1,1)"><rect fill="#ffffff" stroke="none" x="849" y="720" width="13" height="28"/></g><g transform="translate(-430,-30) scale(1,1)"><path fill="none" stroke="#000000" d="M 849 720 L 862 720 L 862 748 L 849 748 L 849 720 Z Z" stroke-miterlimit="10"/></g><g transform="translate(-430,-30) scale(1,1)"><path fill="none" stroke="#000000" d="M 849 744 L 652 744" stroke-miterlimit="10" stroke-dasharray="3"/></g><g transform="translate(-430,-30) scale(1,1)"><path fill="none" stroke="#000000" d="M 662.1626748576241 739.790482243984 L 652 744 L 662.1626748576241 748.209517756016" stroke-miterlimit="10"/></g><g transform="translate(-430,-30) scale(1,1)"><g><path fill="none" stroke="none"/><text fill="#000000" stroke="none" font-family="Arial" font-size="13px" font-style="normal" font-weight="normal" text-decoration="none" x="736.5" y="760.5">16 : </text></g></g><g transform="translate(-430,-30) scale(1,1)"><path fill="none" stroke="#000000" d="M 652 776 L 948 776" stroke-miterlimit="10"/></g><g transform="translate(-430,-30) scale(1,1)"><path fill="#000000" stroke="none" d="M 937.8373251423759 780.209517756016 L 948 776 L 937.8373251423758 771.790482243984"/></g><g transform="translate(-430,-30) scale(1,1)"><path fill="none" stroke="#000000" d="M 937.8373251423759 780.209517756016 L 948 776 L 937.8373251423758 771.790482243984 L 937.8373251423759 780.209517756016" stroke-miterlimit="10"/></g><g transform="translate(-430,-30) scale(1,1)"><g><path fill="none" stroke="none"/><text fill="#000000" stroke="none" font-family="Arial" font-size="13px" font-style="normal" font-weight="normal" text-decoration="none" x="767.792236328125" y="772.5">17 : update</text></g></g><g transform="translate(-430,-30) scale(1,1)"><rect fill="#ffffff" stroke="none" x="948" y="776" width="13" height="28"/></g><g transform="translate(-430,-30) scale(1,1)"><path fill="none" stroke="#000000" d="M 948 776 L 961 776 L 961 804 L 948 804 L 948 776 Z Z" stroke-miterlimit="10"/></g><g transform="translate(-430,-30) scale(1,1)"><path fill="none" stroke="#000000" d="M 948 801 L 652 801" stroke-miterlimit="10" stroke-dasharray="3"/></g><g transform="translate(-430,-30) scale(1,1)"><path fill="none" stroke="#000000" d="M 662.1626748576241 796.790482243984 L 652 801 L 662.1626748576241 805.209517756016" stroke-miterlimit="10"/></g><g transform="translate(-430,-30) scale(1,1)"><g><path fill="none" stroke="none"/><text fill="#000000" stroke="none" font-family="Arial" font-size="13px" font-style="normal" font-weight="normal" text-decoration="none" x="786.5" y="817.5">18 : </text></g></g><g transform="translate(-430,-30) scale(1,1)"><path fill="none" stroke="#000000" d="M 652 852 L 1286 852" stroke-miterlimit="10"/></g><g transform="translate(-430,-30) scale(1,1)"><path fill="#000000" stroke="none" d="M 1275.837325142376 856.209517756016 L 1286 852 L 1275.837325142376 847.790482243984"/></g><g transform="translate(-430,-30) scale(1,1)"><path fill="none" stroke="#000000" d="M 1275.837325142376 856.209517756016 L 1286 852 L 1275.837325142376 847.790482243984 L 1275.837325142376 856.209517756016" stroke-miterlimit="10"/></g><g transform="translate(-430,-30) scale(1,1)"><g><path fill="none" stroke="none"/><text fill="#000000" stroke="none" font-family="Arial" font-size="13px" font-style="normal" font-weight="normal" text-decoration="none" x="879.40087890625" y="851.5">19 : clear</text></g></g><g transform="translate(-430,-30) scale(1,1)"><rect fill="#ffffff" stroke="none" x="1286" y="852" width="13" height="124"/></g><g transform="translate(-430,-30) scale(1,1)"><path fill="none" stroke="#000000" d="M 1286 852 L 1299 852 L 1299 976 L 1286 976 L 1286 852 Z Z" stroke-miterlimit="10"/></g><g transform="translate(-430,-30) scale(1,1)"><path fill="none" stroke="#000000" d="M 1286 876 L 652 876" stroke-miterlimit="10" stroke-dasharray="3"/></g><g transform="translate(-430,-30) scale(1,1)"><path fill="none" stroke="#000000" d="M 662.1626748576241 871.790482243984 L 652 876 L 662.1626748576241 880.209517756016" stroke-miterlimit="10"/></g><g transform="translate(-430,-30) scale(1,1)"><g><path fill="none" stroke="none"/><text fill="#000000" stroke="none" font-family="Arial" font-size="13px" font-style="normal" font-weight="normal" text-decoration="none" x="887.5" y="875.5">20 : </text></g></g><g transform="translate(-430,-30) scale(1,1)"><path fill="none" stroke="#000000" d="M 856 895 L 1286 895" stroke-miterlimit="10"/></g><g transform="translate(-430,-30) scale(1,1)"><path fill="none" stroke="#000000" d="M 1275.837325142376 899.209517756016 L 1286 895 L 1275.837325142376 890.790482243984" stroke-miterlimit="10"/></g><g transform="translate(-430,-30) scale(1,1)"><g><path fill="none" stroke="none"/><text fill="#000000" stroke="none" font-family="Arial" font-size="13px" font-style="normal" font-weight="normal" text-decoration="none" x="1087.40087890625" y="892.5">21 : draw</text></g></g><g transform="translate(-430,-30) scale(1,1)"><path fill="none" stroke="#000000" d="M 1286 912 L 652 912" stroke-miterlimit="10" stroke-dasharray="3"/></g><g transform="translate(-430,-30) scale(1,1)"><path fill="none" stroke="#000000" d="M 662.1626748576241 907.790482243984 L 652 912 L 662.1626748576241 916.209517756016" stroke-miterlimit="10"/></g><g transform="translate(-430,-30) scale(1,1)"><g><path fill="none" stroke="none"/><text fill="#000000" stroke="none" font-family="Arial" font-size="13px" font-style="normal" font-weight="normal" text-decoration="none" x="895.5" y="907.5">22 : </text></g></g><g transform="translate(-430,-30) scale(1,1)"><path fill="none" stroke="#000000" d="M 955 938 L 1286 938" stroke-miterlimit="10"/></g><g transform="translate(-430,-30) scale(1,1)"><path fill="none" stroke="#000000" d="M 1275.837325142376 942.209517756016 L 1286 938 L 1275.837325142376 933.790482243984" stroke-miterlimit="10"/></g><g transform="translate(-430,-30) scale(1,1)"><g><path fill="none" stroke="none"/><text fill="#000000" stroke="none" font-family="Arial" font-size="13px" font-style="normal" font-weight="normal" text-decoration="none" x="1093.40087890625" y="934.5">23 : draw</text></g></g><g transform="translate(-430,-30) scale(1,1)"><path fill="none" stroke="#000000" d="M 1293 976 L 652 976" stroke-miterlimit="10" stroke-dasharray="3"/></g><g transform="translate(-430,-30) scale(1,1)"><path fill="none" stroke="#000000" d="M 662.1626748576241 971.790482243984 L 652 976 L 662.1626748576241 980.209517756016" stroke-miterlimit="10"/></g><g transform="translate(-430,-30) scale(1,1)"><g><path fill="none" stroke="none"/><text fill="#000000" stroke="none" font-family="Arial" font-size="13px" font-style="normal" font-weight="normal" text-decoration="none" x="958.5" y="992.5">24 : </text></g></g><g transform="translate(-430,-30) scale(1,1)"><path fill="none" stroke="#000000" d="M 506 1048 L 645 1048" stroke-miterlimit="10"/></g><g transform="translate(-430,-30) scale(1,1)"><path fill="#000000" stroke="none" d="M 634.8373251423759 1052.2095177560159 L 645 1048 L 634.8373251423758 1043.7904822439841"/></g><g transform="translate(-430,-30) scale(1,1)"><path fill="none" stroke="#000000" d="M 634.8373251423759 1052.2095177560159 L 645 1048 L 634.8373251423758 1043.7904822439841 L 634.8373251423759 1052.2095177560159" stroke-miterlimit="10"/></g><g transform="translate(-430,-30) scale(1,1)"><path fill="none" stroke="#000000" d="M 642 1277 L 662 1297" stroke-miterlimit="10"/></g><g transform="translate(-430,-30) scale(1,1)"><path fill="none" stroke="#000000" d="M 662 1277 L 642 1297" stroke-miterlimit="10"/></g><g transform="translate(-430,-30) scale(1,1)"><g><path fill="none" stroke="none"/><text fill="#000000" stroke="none" font-family="Arial" font-size="13px" font-style="normal" font-weight="normal" text-decoration="none" x="583.5" y="1044.5">25 : </text></g></g><g transform="translate(-430,-30) scale(1,1)"><g><path fill="none" stroke="none"/><text fill="#000000" stroke="none" font-family="Arial" font-size="13px" font-style="normal" font-weight="normal" text-decoration="none" x="567.5" y="1029.5">«destroy»</text></g></g><g transform="translate(-430,-30) scale(1,1)"><rect fill="#ffffff" stroke="none" x="645" y="1048" width="13" height="152"/></g><g transform="translate(-430,-30) scale(1,1)"><path fill="none" stroke="#000000" d="M 645 1048 L 658 1048 L 658 1200 L 645 1200 L 645 1048 Z Z" stroke-miterlimit="10"/></g><g transform="translate(-430,-30) scale(1,1)"><path fill="none" stroke="#000000" d="M 658 1072 L 1150 1072" stroke-miterlimit="10"/></g><g transform="translate(-430,-30) scale(1,1)"><path fill="#000000" stroke="none" d="M 1139.837325142376 1076.2095177560159 L 1150 1072 L 1139.837325142376 1067.7904822439841"/></g><g transform="translate(-430,-30) scale(1,1)"><path fill="none" stroke="#000000" d="M 1139.837325142376 1076.2095177560159 L 1150 1072 L 1139.837325142376 1067.7904822439841 L 1139.837325142376 1076.2095177560159" stroke-miterlimit="10"/></g><g transform="translate(-430,-30) scale(1,1)"><path fill="none" stroke="#000000" d="M 1147 1112 L 1167 1132" stroke-miterlimit="10"/></g><g transform="translate(-430,-30) scale(1,1)"><path fill="none" stroke="#000000" d="M 1167 1112 L 1147 1132" stroke-miterlimit="10"/></g><g transform="translate(-430,-30) scale(1,1)"><g><path fill="none" stroke="none"/><text fill="#000000" stroke="none" font-family="Arial" font-size="13px" font-style="normal" font-weight="normal" text-decoration="none" x="891.5" y="1068.5">26 : </text></g></g><g transform="translate(-430,-30) scale(1,1)"><g><path fill="none" stroke="none"/><text fill="#000000" stroke="none" font-family="Arial" font-size="13px" font-style="normal" font-weight="normal" text-decoration="none" x="875.5" y="1053.5">«destroy»</text></g></g><g transform="translate(-430,-30) scale(1,1)"><rect fill="#ffffff" stroke="none" x="1150" y="1072" width="13" height="28"/></g><g transform="translate(-430,-30) scale(1,1)"><path fill="none" stroke="#000000" d="M 1150 1072 L 1163 1072 L 1163 1100 L 1150 1100 L 1150 1072 Z Z" stroke-miterlimit="10"/></g><g transform="translate(-430,-30) scale(1,1)"><path fill="none" stroke="#000000" d="M 658 1101 L 1066 1101" stroke-miterlimit="10"/></g><g transform="translate(-430,-30) scale(1,1)"><path fill="#000000" stroke="none" d="M 1055.837325142376 1105.2095177560159 L 1066 1101 L 1055.837325142376 1096.7904822439841"/></g><g transform="translate(-430,-30) scale(1,1)"><path fill="none" stroke="#000000" d="M 1055.837325142376 1105.2095177560159 L 1066 1101 L 1055.837325142376 1096.7904822439841 L 1055.837325142376 1105.2095177560159" stroke-miterlimit="10"/></g><g transform="translate(-430,-30) scale(1,1)"><path fill="none" stroke="#000000" d="M 1063 1141 L 1083 1161" stroke-miterlimit="10"/></g><g transform="translate(-430,-30) scale(1,1)"><path fill="none" stroke="#000000" d="M 1083 1141 L 1063 1161" stroke-miterlimit="10"/></g><g transform="translate(-430,-30) scale(1,1)"><g><path fill="none" stroke="none"/><text fill="#000000" stroke="none" font-family="Arial" font-size="13px" font-style="normal" font-weight="normal" text-decoration="none" x="849.5" y="1097.5">27 : </text></g></g><g transform="translate(-430,-30) scale(1,1)"><g><path fill="none" stroke="none"/><text fill="#000000" stroke="none" font-family="Arial" font-size="13px" font-style="normal" font-weight="normal" text-decoration="none" x="833.5" y="1082.5">«destroy»</text></g></g><g transform="translate(-430,-30) scale(1,1)"><rect fill="#ffffff" stroke="none" x="1066" y="1101" width="13" height="28"/></g><g transform="translate(-430,-30) scale(1,1)"><path fill="none" stroke="#000000" d="M 1066 1101 L 1079 1101 L 1079 1129 L 1066 1129 L 1066 1101 Z Z" stroke-miterlimit="10"/></g><g transform="translate(-430,-30) scale(1,1)"><path fill="none" stroke="#000000" d="M 658 1130 L 948 1130" stroke-miterlimit="10"/></g><g transform="translate(-430,-30) scale(1,1)"><path fill="#000000" stroke="none" d="M 937.8373251423759 1134.2095177560159 L 948 1130 L 937.8373251423758 1125.7904822439841"/></g><g transform="translate(-430,-30) scale(1,1)"><path fill="none" stroke="#000000" d="M 937.8373251423759 1134.2095177560159 L 948 1130 L 937.8373251423758 1125.7904822439841 L 937.8373251423759 1134.2095177560159" stroke-miterlimit="10"/></g><g transform="translate(-430,-30) scale(1,1)"><path fill="none" stroke="#000000" d="M 945 1170 L 965 1190" stroke-miterlimit="10"/></g><g transform="translate(-430,-30) scale(1,1)"><path fill="none" stroke="#000000" d="M 965 1170 L 945 1190" stroke-miterlimit="10"/></g><g transform="translate(-430,-30) scale(1,1)"><g><path fill="none" stroke="none"/><text fill="#000000" stroke="none" font-family="Arial" font-size="13px" font-style="normal" font-weight="normal" text-decoration="none" x="790.5" y="1126.5">28 : </text></g></g><g transform="translate(-430,-30) scale(1,1)"><g><path fill="none" stroke="none"/><text fill="#000000" stroke="none" font-family="Arial" font-size="13px" font-style="normal" font-weight="normal" text-decoration="none" x="774.5" y="1111.5">«destroy»</text></g></g><g transform="translate(-430,-30) scale(1,1)"><rect fill="#ffffff" stroke="none" x="948" y="1130" width="13" height="28"/></g><g transform="translate(-430,-30) scale(1,1)"><path fill="none" stroke="#000000" d="M 948 1130 L 961 1130 L 961 1158 L 948 1158 L 948 1130 Z Z" stroke-miterlimit="10"/></g><g transform="translate(-430,-30) scale(1,1)"><path fill="none" stroke="#000000" d="M 658 1154 L 849 1154" stroke-miterlimit="10"/></g><g transform="translate(-430,-30) scale(1,1)"><path fill="#000000" stroke="none" d="M 838.8373251423759 1158.2095177560159 L 849 1154 L 838.8373251423758 1149.7904822439841"/></g><g transform="translate(-430,-30) scale(1,1)"><path fill="none" stroke="#000000" d="M 838.8373251423759 1158.2095177560159 L 849 1154 L 838.8373251423758 1149.7904822439841 L 838.8373251423759 1158.2095177560159" stroke-miterlimit="10"/></g><g transform="translate(-430,-30) scale(1,1)"><path fill="none" stroke="#000000" d="M 846 1194 L 866 1214" stroke-miterlimit="10"/></g><g transform="translate(-430,-30) scale(1,1)"><path fill="none" stroke="#000000" d="M 866 1194 L 846 1214" stroke-miterlimit="10"/></g><g transform="translate(-430,-30) scale(1,1)"><g><path fill="none" stroke="none"/><text fill="#000000" stroke="none" font-family="Arial" font-size="13px" font-style="normal" font-weight="normal" text-decoration="none" x="740.5" y="1150.5">29 : </text></g></g><g transform="translate(-430,-30) scale(1,1)"><g><path fill="none" stroke="none"/><text fill="#000000" stroke="none" font-family="Arial" font-size="13px" font-style="normal" font-weight="normal" text-decoration="none" x="724.5" y="1135.5">«destroy»</text></g></g><g transform="translate(-430,-30) scale(1,1)"><rect fill="#ffffff" stroke="none" x="849" y="1154" width="13" height="28"/></g><g transform="translate(-430,-30) scale(1,1)"><path fill="none" stroke="#000000" d="M 849 1154 L 862 1154 L 862 1182 L 849 1182 L 849 1154 Z Z" stroke-miterlimit="10"/></g><g transform="translate(-430,-30) scale(1,1)"><path fill="none" stroke="#000000" d="M 658 1184 L 781 1184" stroke-miterlimit="10"/></g><g transform="translate(-430,-30) scale(1,1)"><path fill="#000000" stroke="none" d="M 770.8373251423759 1188.2095177560159 L 781 1184 L 770.8373251423758 1179.7904822439841"/></g><g transform="translate(-430,-30) scale(1,1)"><path fill="none" stroke="#000000" d="M 770.8373251423759 1188.2095177560159 L 781 1184 L 770.8373251423758 1179.7904822439841 L 770.8373251423759 1188.2095177560159" stroke-miterlimit="10"/></g><g transform="translate(-430,-30) scale(1,1)"><path fill="none" stroke="#000000" d="M 778 1224 L 798 1244" stroke-miterlimit="10"/></g><g transform="translate(-430,-30) scale(1,1)"><path fill="none" stroke="#000000" d="M 798 1224 L 778 1244" stroke-miterlimit="10"/></g><g transform="translate(-430,-30) scale(1,1)"><g><path fill="none" stroke="none"/><text fill="#000000" stroke="none" font-family="Arial" font-size="13px" font-style="normal" font-weight="normal" text-decoration="none" x="706.5" y="1180.5">30 : </text></g></g><g transform="translate(-430,-30) scale(1,1)"><g><path fill="none" stroke="none"/><text fill="#000000" stroke="none" font-family="Arial" font-size="13px" font-style="normal" font-weight="normal" text-decoration="none" x="690.5" y="1165.5">«destroy»</text></g></g><g transform="translate(-430,-30) scale(1,1)"><rect fill="#ffffff" stroke="none" x="781" y="1184" width="13" height="28"/></g><g transform="translate(-430,-30) scale(1,1)"><path fill="none" stroke="#000000" d="M 781 1184 L 794 1184 L 794 1212 L 781 1212 L 781 1184 Z Z" stroke-miterlimit="10"/></g><g transform="translate(-430,-30) scale(1,1)"><path fill="none" stroke="#000000" d="M 506 1336 L 1286 1336" stroke-miterlimit="10"/></g><g transform="translate(-430,-30) scale(1,1)"><path fill="#000000" stroke="none" d="M 1275.837325142376 1340.2095177560159 L 1286 1336 L 1275.837325142376 1331.7904822439841"/></g><g transform="translate(-430,-30) scale(1,1)"><path fill="none" stroke="#000000" d="M 1275.837325142376 1340.2095177560159 L 1286 1336 L 1275.837325142376 1331.7904822439841 L 1275.837325142376 1340.2095177560159" stroke-miterlimit="10"/></g><g transform="translate(-430,-30) scale(1,1)"><path fill="none" stroke="#000000" d="M 1283 1406 L 1303 1426" stroke-miterlimit="10"/></g><g transform="translate(-430,-30) scale(1,1)"><path fill="none" stroke="#000000" d="M 1303 1406 L 1283 1426" stroke-miterlimit="10"/></g><g transform="translate(-430,-30) scale(1,1)"><g><path fill="none" stroke="none"/><text fill="#000000" stroke="none" font-family="Arial" font-size="13px" font-style="normal" font-weight="normal" text-decoration="none" x="873.5" y="1332.5">31 : exit</text></g></g><g transform="translate(-430,-30) scale(1,1)"><g><path fill="none" stroke="none"/><text fill="#000000" stroke="none" font-family="Arial" font-size="13px" font-style="normal" font-weight="normal" text-decoration="none" x="867.5" y="1317.5">«destroy»</text></g></g><g transform="translate(-430,-30) scale(1,1)"><rect fill="#ffffff" stroke="none" x="1286" y="1336" width="13" height="28"/></g><g transform="translate(-430,-30) scale(1,1)"><path fill="none" stroke="#000000" d="M 1286 1336 L 1299 1336 L 1299 1364 L 1286 1364 L 1286 1336 Z Z" stroke-miterlimit="10"/></g></g></svg>